<svg xmlns="http://www.w3.org/2000/svg" viewBox="0 0 24 24"><defs><style>.cls-1{fill:#007bc2;}.cls-2{fill:#fff;}</style></defs><g id="Calque_2" data-name="Calque 2"><g id="Calque_1-2" data-name="Calque 1"><g id="_339-trello" data-name="339-trello"><path class="cls-1" d="M21,0H3A3,3,0,0,0,0,3V21a3,3,0,0,0,3,3H21a3,3,0,0,0,3-3V3a3,3,0,0,0-3-3Z"/><path class="cls-2" d="M10.56,18.18A1.44,1.44,0,0,1,9.12,19.6H4.69a1.43,1.43,0,0,1-1.45-1.42V4.56A1.44,1.44,0,0,1,4.68,3.12H9.12a1.44,1.44,0,0,1,1.44,1.44V18.18Z"/><path class="cls-2" d="M20.9,12.18a1.44,1.44,0,0,1-1.44,1.44H15.12a1.44,1.44,0,0,1-1.44-1.44V4.56a1.44,1.44,0,0,1,1.44-1.44h4.34A1.45,1.45,0,0,1,20.9,4.56Z"/></g></g></g></svg>